<?xml version="1.0" standalone="no"?>
<!DOCTYPE svg PUBLIC "-//W3C//DTD SVG 20010904//EN"
 "http://www.w3.org/TR/2001/REC-SVG-20010904/DTD/svg10.dtd">
<svg version="1.0" xmlns="http://www.w3.org/2000/svg"
 width="500.000000pt" height="500.000000pt" viewBox="0 0 500.000000 500.000000"
 preserveAspectRatio="xMidYMid meet">

<g transform="translate(0.000000,500.000000) scale(0.100000,-0.100000)"
fill="#000000" stroke="none">
<path d="M1954 3050 c-164 -21 -359 -108 -595 -267 -72 -49 -142 -94 -157
-102 -15 -8 -70 -17 -122 -21 l-95 -6 38 -16 c20 -9 37 -19 37 -22 0 -3 -14
-20 -31 -38 -17 -18 -35 -41 -40 -51 -9 -15 -6 -15 23 3 66 40 153 16 197 -53
11 -18 21 -27 21 -21 0 20 -60 94 -93 114 l-32 20 672 0 672 0 -39 -57 c-35
-49 -60 -107 -60 -137 0 -6 13 11 29 36 56 88 139 130 261 131 149 1 265 -78
342 -233 42 -83 45 -82 23 3 -21 81 -59 152 -112 208 -25 27 -39 49 -32 49 49
-1 261 -70 349 -115 54 -27 72 -25 23 3 -122 69 -187 148 -164 199 14 30 56
46 106 39 35 -4 181 -61 454 -175 l74 -31 286 0 286 0 -45 29 c-25 15 -70 50
-100 78 l-55 49 -110 12 c-468 51 -887 65 -1400 48 l-251 -8 -102 138 c-119
160 -119 160 4 176 71 9 286 6 404 -6 25 -3 11 2 -30 10 -89 18 -526 27 -636
14z m66 -55 c33 -17 52 -40 148 -171 l81 -112 -31 -6 c-17 -3 -217 -9 -444
-13 -414 -6 -444 -4 -444 27 0 31 203 162 340 221 41 17 115 42 165 55 93 24
137 24 185 -1z"/>
<path d="M1895 2794 c-16 -8 -41 -24 -55 -35 l-25 -21 79 6 c43 3 107 6 142 6
48 0 62 3 58 13 -16 43 -137 62 -199 31z"/>
<path d="M2133 2531 c136 -5 180 -9 186 -20 7 -11 11 -9 20 8 l12 21 -198 -2
-198 -2 178 -5z"/>
<path d="M1653 2059 c-47 -14 -83 -62 -83 -112 0 -37 6 -47 55 -93 39 -37 55
-60 55 -78 0 -44 -59 -59 -125 -32 l-35 15 0 -35 c0 -41 24 -54 98 -54 67 0
114 27 131 77 23 63 10 92 -72 160 -30 25 -35 64 -12 83 10 8 32 11 64 7 44
-5 49 -4 59 18 9 20 8 26 -6 34 -29 15 -95 20 -129 10z"/>
<path d="M2905 2065 c-5 -2 -22 -6 -37 -9 -42 -9 -93 -60 -118 -117 -28 -67
-31 -163 -5 -207 34 -57 124 -79 198 -48 126 52 174 306 68 361 -29 14 -90 26
-106 20z m69 -87 c22 -30 20 -113 -3 -164 -22 -48 -64 -84 -98 -84 -36 0 -73
42 -73 83 0 53 26 127 56 158 36 37 95 41 118 7z"/>
<path d="M1895 2038 c-9 -40 -75 -358 -75 -363 0 -3 47 -5 104 -5 110 0 116 3
116 51 0 17 -8 19 -66 19 l-66 0 7 33 c14 69 11 67 81 67 44 0 64 4 64 13 0 6
3 22 6 35 6 21 4 22 -58 22 l-65 0 10 45 10 45 68 0 c52 0 68 4 73 16 16 41
10 44 -99 44 -100 0 -105 -1 -110 -22z"/>
<path d="M2160 2046 c0 -8 -3 -21 -6 -30 -5 -13 2 -16 40 -16 30 0 46 -4 46
-13 0 -7 -13 -75 -30 -152 -16 -77 -30 -145 -30 -152 0 -8 13 -13 35 -13 28 0
36 4 40 23 3 12 16 76 30 142 14 66 27 130 30 143 5 19 12 22 54 22 46 0 49 1
53 30 l5 30 -134 0 c-108 0 -133 -3 -133 -14z"/>
<path d="M2448 2030 c-4 -29 -4 -30 39 -30 53 0 52 7 13 -178 -16 -78 -30
-144 -30 -147 0 -11 71 -4 75 8 2 6 18 81 36 165 l32 152 47 0 c47 0 59 11 60
53 0 4 -60 7 -134 7 l-134 0 -4 -30z"/>
<path d="M3185 2038 c-10 -43 -75 -358 -75 -364 0 -3 17 -4 37 -2 l37 3 16 75
c13 61 20 75 35 75 14 0 25 -18 46 -75 l27 -75 41 -3 c22 -2 41 -1 41 2 0 2
-16 41 -35 85 l-34 81 29 15 c79 41 78 166 -1 194 -18 6 -60 11 -95 11 -58 0
-64 -2 -69 -22z m126 -48 c24 -13 25 -57 2 -82 -9 -11 -30 -18 -51 -18 -32 0
-34 2 -28 26 4 15 10 39 13 55 6 31 28 38 64 19z"/>
<path d="M3485 1868 l-41 -193 105 -3 c57 -1 105 -1 106 0 2 2 6 18 10 36 l7
32 -70 0 -69 0 10 50 9 49 66 3 c66 3 66 3 73 36 l6 32 -64 0 -64 0 7 38 c4
20 9 40 11 45 2 4 35 7 74 7 53 0 69 3 69 14 0 8 3 21 6 30 5 14 -8 16 -103
16 l-108 0 -40 -192z"/>
</g>
</svg>
