<?xml version="1.0" standalone="no"?>
<!DOCTYPE svg PUBLIC "-//W3C//DTD SVG 20010904//EN"
 "http://www.w3.org/TR/2001/REC-SVG-20010904/DTD/svg10.dtd">
<svg version="1.0" xmlns="http://www.w3.org/2000/svg"
 width="1024.000000pt" height="1024.000000pt" viewBox="0 0 1024.000000 1024.000000"
 preserveAspectRatio="xMidYMid meet">

<g transform="translate(0.000000,1024.000000) scale(0.100000,-0.100000)"
fill="#000000" stroke="none">
<path d="M6725 7003 c-92 -48 -128 -136 -91 -224 9 -21 181 -199 458 -472 244
-240 451 -449 461 -462 l18 -26 -458 -460 c-252 -253 -466 -474 -475 -492 -23
-44 -22 -109 2 -158 22 -43 56 -68 119 -89 36 -12 45 -11 98 10 54 22 101 67
641 605 320 320 582 586 582 591 0 5 -260 269 -577 586 -400 400 -589 582
-615 593 -48 19 -124 19 -163 -2z"/>
<path d="M5569 6971 c-22 -18 -24 -29 -30 -140 -7 -137 -6 -135 -93 -166 -28
-10 -73 -29 -99 -42 -56 -28 -43 -33 -157 68 -87 77 -114 93 -144 85 -33 -8
-246 -229 -246 -255 0 -25 26 -62 113 -165 62 -73 60 -65 42 -150 -2 -10 -8
-23 -13 -30 -5 -6 -17 -35 -28 -64 -21 -60 -11 -56 -167 -70 -153 -14 -147 -5
-147 -214 0 -155 2 -170 20 -188 11 -11 24 -20 30 -20 53 0 220 -25 236 -35
12 -7 28 -37 38 -68 9 -30 24 -63 31 -73 31 -41 19 -70 -70 -176 -51 -61 -85
-111 -85 -124 0 -28 55 -97 151 -190 110 -107 111 -107 247 12 60 53 92 74
111 74 41 -1 184 -65 204 -92 13 -17 20 -54 26 -128 5 -58 12 -113 16 -122 12
-31 73 -41 216 -36 74 3 141 8 151 12 25 11 36 51 46 164 6 64 15 109 23 117
23 22 202 86 224 80 11 -3 55 -39 98 -80 47 -43 91 -76 108 -80 39 -9 68 12
187 136 120 126 121 136 24 240 -113 123 -110 111 -61 234 32 80 47 106 63
110 20 4 205 25 225 25 6 0 21 11 35 24 26 23 26 25 26 180 0 150 -1 158 -23
182 -20 22 -36 26 -123 34 -162 16 -161 16 -175 58 -6 20 -17 51 -25 67 -53
122 -56 111 48 223 82 88 94 112 74 150 -8 15 -61 75 -117 135 -134 139 -133
138 -260 21 -106 -96 -95 -94 -221 -47 -119 44 -116 39 -134 227 -4 54 -11 74
-29 92 -23 23 -29 24 -183 24 -142 0 -162 -2 -183 -19z m351 -784 c89 -46 97
-51 133 -95 103 -122 130 -311 66 -447 -30 -64 -136 -179 -168 -183 -14 -2
-31 -8 -37 -13 -5 -4 -38 -15 -72 -23 -94 -22 -215 -2 -312 51 -55 30 -126
117 -157 192 -40 99 -27 276 27 344 11 14 20 31 20 39 0 34 135 132 218 159
15 4 72 7 127 6 88 -2 107 -6 155 -30z"/>
<path d="M2433 6900 c-50 -12 -80 -36 -93 -75 -22 -66 2 -121 67 -154 14 -7
86 -11 193 -11 149 0 176 2 209 19 45 24 76 83 67 129 -8 34 -49 76 -89 91
-32 12 -305 13 -354 1z"/>
<path d="M3293 6895 c-77 -33 -95 -138 -34 -199 l31 -31 186 -5 c184 -5 186
-5 165 -24 -51 -46 -45 -135 12 -173 l33 -23 563 0 562 0 -15 22 c-41 58 -9
116 142 261 103 97 123 100 209 31 32 -26 70 -59 85 -73 59 -59 69 -60 170
-10 106 51 118 69 118 174 l0 65 -1097 0 c-920 -1 -1103 -3 -1130 -15z"/>
<path d="M2624 6191 c-63 -39 -67 -143 -7 -190 26 -21 32 -21 988 -21 l962 0
13 25 c18 33 76 53 183 60 72 6 92 11 108 28 23 24 59 90 59 107 0 7 -357 10
-1137 10 -1104 0 -1139 -1 -1169 -19z"/>
<path d="M2269 5743 c-15 -2 -39 -18 -55 -34 -24 -25 -29 -39 -29 -79 0 -43 5
-54 33 -82 l32 -33 1110 -3 1109 -2 -24 -36 c-18 -27 -23 -43 -18 -67 17 -91
31 -97 262 -99 l193 -2 34 40 c18 21 33 43 34 48 0 12 -58 125 -81 158 -18 24
-26 27 -117 33 -154 10 -183 29 -174 115 l5 50 -1144 -1 c-629 -1 -1156 -4
-1170 -6z"/>
<path d="M2835 5143 c-47 -10 -72 -26 -89 -54 -26 -44 -16 -103 23 -143 l31
-31 583 -5 c322 -3 572 -9 559 -13 -50 -18 -67 -107 -32 -165 39 -64 11 -62
864 -62 l774 0 -14 38 c-7 20 -14 75 -14 122 -1 80 -3 86 -28 106 -32 25 -132
69 -177 77 -27 5 -38 -2 -99 -59 -127 -120 -138 -124 -217 -74 -57 37 -191
175 -215 222 -9 18 -22 36 -28 40 -12 8 -1886 9 -1921 1z"/>
<path d="M1940 3640 l0 -720 170 0 170 0 0 270 0 270 340 0 340 0 0 145 0 145
-340 0 -340 0 0 150 0 150 380 0 380 0 0 155 0 155 -550 0 -550 0 0 -720z"/>
<path d="M3160 4250 l0 -110 160 0 160 0 0 110 0 110 -160 0 -160 0 0 -110z"/>
<path d="M4525 4343 c8 -20 112 -306 205 -558 34 -93 79 -217 100 -275 21 -58
77 -213 123 -345 l84 -240 96 -3 95 -3 16 73 c9 40 38 172 65 293 34 152 50
212 55 195 3 -14 21 -99 40 -190 19 -91 44 -211 56 -267 l23 -103 101 0 101 0
64 188 c93 276 299 855 402 1132 21 58 39 108 39 113 0 4 -90 7 -200 7 -152 0
-202 -3 -205 -12 -2 -7 -43 -161 -91 -343 -86 -330 -103 -384 -104 -335 0 14
-33 174 -73 355 l-73 330 -87 3 c-83 3 -87 2 -92 -20 -3 -13 -21 -97 -40 -188
-63 -299 -106 -494 -111 -499 -2 -2 -4 4 -4 15 0 21 -47 199 -111 419 -23 77
-50 170 -60 208 l-20 67 -200 0 c-188 0 -201 -1 -194 -17z"/>
<path d="M6550 4020 c-86 -9 -173 -35 -238 -72 -56 -32 -172 -125 -172 -138 0
-4 51 -48 114 -98 l114 -90 22 23 c67 71 233 122 313 96 42 -14 87 -63 87 -95
0 -21 -9 -24 -192 -55 -210 -36 -277 -56 -341 -105 -185 -141 -162 -436 43
-541 110 -56 283 -59 392 -7 35 16 75 42 91 56 l27 27 0 -51 0 -50 160 0 160
0 0 348 c0 208 -4 372 -11 407 -15 83 -44 138 -107 206 -102 110 -261 158
-462 139z m248 -680 c-4 -54 -8 -65 -43 -100 -99 -101 -248 -121 -291 -39 -24
47 -13 89 32 123 27 19 228 74 278 75 l28 1 -4 -60z"/>
<path d="M3590 4015 c0 -9 161 -259 193 -300 4 -5 42 -61 83 -124 l76 -113
-45 -67 c-25 -36 -100 -151 -168 -256 -67 -104 -129 -200 -137 -212 l-14 -23
186 0 186 0 81 125 c44 69 84 125 88 125 3 0 41 -56 85 -125 l78 -125 185 0
c155 0 184 2 180 14 -5 13 -102 164 -274 429 -36 55 -67 105 -69 112 -3 7 43
88 103 179 122 187 206 324 211 343 3 10 -36 13 -175 13 l-178 0 -62 -102
c-97 -162 -78 -160 -165 -17 l-74 124 -187 3 c-103 1 -187 0 -187 -3z"/>
<path d="M7100 4016 c0 -2 30 -68 66 -147 36 -79 94 -209 129 -289 63 -144
144 -324 224 -493 22 -48 41 -95 41 -104 0 -29 -48 -99 -87 -126 -63 -43 -92
-50 -210 -49 l-112 0 -6 -36 c-3 -20 -17 -75 -30 -122 -13 -46 -22 -86 -20
-88 17 -17 137 -44 215 -49 199 -12 369 65 471 213 28 41 589 1263 589 1284 0
12 -328 14 -346 2 -6 -4 -35 -63 -64 -132 -116 -277 -134 -319 -175 -415 -24
-55 -45 -107 -48 -115 -3 -8 -6 -10 -6 -3 -1 13 -229 559 -267 638 l-16 35
-174 0 c-96 0 -174 -2 -174 -4z"/>
<path d="M3160 3465 l0 -545 160 0 160 0 0 545 0 545 -160 0 -160 0 0 -545z"/>
</g>
</svg>
