<?xml version="1.0" standalone="no"?>
<!DOCTYPE svg PUBLIC "-//W3C//DTD SVG 20010904//EN"
 "http://www.w3.org/TR/2001/REC-SVG-20010904/DTD/svg10.dtd">
<svg version="1.0" xmlns="http://www.w3.org/2000/svg"
 width="500.000000pt" height="500.000000pt" viewBox="0 0 500.000000 500.000000"
 preserveAspectRatio="xMidYMid meet">

<g transform="translate(0.000000,500.000000) scale(0.100000,-0.100000)"
fill="#000000" stroke="none">
<path d="M2040 2964 c-277 -29 -416 -85 -731 -299 -136 -92 -143 -95 -197 -96
-54 0 -155 -15 -121 -18 8 0 24 -7 34 -15 18 -13 17 -15 -15 -57 -19 -24 -38
-50 -44 -58 -6 -7 7 -2 28 13 65 44 136 31 191 -36 27 -33 28 -33 10 -3 -25
42 -55 74 -77 81 -64 20 48 24 653 24 450 0 659 -3 659 -10 0 -6 -10 -21 -21
-33 -22 -22 -62 -102 -74 -147 -5 -20 -2 -18 15 10 33 52 80 99 125 123 34 19
56 22 150 22 103 0 113 -2 163 -30 68 -37 141 -117 181 -196 35 -70 38 -67 15
12 -23 77 -55 137 -104 192 -23 26 -40 50 -37 53 11 11 169 -36 274 -80 108
-46 150 -55 74 -16 -55 28 -128 99 -136 133 -20 77 32 109 136 82 61 -15 373
-141 434 -174 25 -13 78 -17 328 -21 163 -3 297 -5 297 -4 0 0 -21 16 -47 34
-27 18 -68 53 -93 76 l-45 44 -140 14 c-380 40 -564 50 -935 51 -206 0 -445
-4 -531 -8 l-156 -8 -102 136 c-56 75 -101 144 -99 152 5 28 56 35 258 36 126
1 177 4 145 9 -56 8 -411 17 -465 12z m-13 -75 c32 -29 203 -257 203 -270 0
-5 -33 -9 -72 -9 -40 -1 -95 -2 -123 -4 -27 -2 -187 -7 -355 -11 -330 -7 -364
-4 -358 38 6 44 257 192 418 247 152 52 237 54 287 9z"/>
<path d="M1908 2710 c-34 -10 -101 -51 -94 -57 2 -3 64 -2 136 2 127 7 130 8
114 26 -30 33 -100 46 -156 29z"/>
<path d="M2568 2933 c6 -2 18 -2 25 0 6 3 1 5 -13 5 -14 0 -19 -2 -12 -5z"/>
<path d="M2215 2433 c49 -2 92 -9 96 -14 4 -7 9 -4 12 5 6 14 -6 16 -96 14
l-102 -2 90 -3z"/>
<path d="M1182 1812 c-28 -125 -52 -233 -52 -240 0 -7 13 -12 30 -12 32 0 30
-6 66 153 l18 77 33 0 c40 0 40 -2 9 -132 l-23 -98 33 0 32 0 31 128 c16 70
39 170 51 222 11 52 23 103 26 113 4 14 -1 17 -29 17 l-34 0 -22 -100 -22
-100 -35 0 c-40 0 -40 -1 -14 108 11 46 20 85 20 88 0 2 -15 4 -33 4 l-32 0
-53 -228z"/>
<path d="M1575 2028 c-3 -7 -43 -114 -89 -238 -78 -208 -83 -225 -64 -228 33
-6 46 5 59 47 12 40 13 41 56 41 l44 0 -7 -45 c-6 -45 -6 -45 24 -45 35 0 35
-2 52 235 5 77 13 164 16 193 l5 52 -46 0 c-27 0 -47 -5 -50 -12z m21 -208
l-11 -115 -32 -3 c-18 -2 -33 1 -33 5 0 12 67 210 75 223 12 19 12 8 1 -110z"/>
<path d="M1762 1812 c-28 -125 -52 -233 -52 -240 0 -7 12 -12 28 -12 28 0 29
2 51 108 31 141 42 185 46 181 3 -4 35 -254 35 -277 0 -7 11 -12 24 -12 22 0
25 8 46 98 12 53 37 160 55 237 l32 140 -24 3 c-14 2 -27 1 -30 -2 -5 -5 -30
-105 -54 -221 -15 -75 -21 -59 -39 108 -13 116 -13 117 -39 117 -26 0 -27 -2
-79 -228z"/>
<path d="M2130 2013 c-33 -31 -57 -104 -47 -144 4 -13 23 -49 42 -79 32 -49
36 -61 32 -104 -3 -33 -11 -54 -23 -63 -30 -22 -39 -9 -38 51 1 55 1 56 -27
56 -33 0 -43 -24 -44 -98 0 -51 21 -72 71 -72 70 0 113 44 129 132 10 50 0 86
-40 149 -38 59 -45 107 -19 134 30 30 49 14 47 -38 -3 -46 -2 -47 26 -47 24 0
29 5 35 31 17 88 -1 119 -70 119 -34 0 -50 -6 -74 -27z"/>
<path d="M2495 2028 c-5 -18 -105 -454 -105 -462 0 -3 12 -6 28 -6 27 0 27 1
61 153 19 83 37 161 41 172 5 11 6 -56 2 -148 l-5 -169 28 4 c26 3 33 14 96
163 38 88 68 155 69 148 0 -6 -16 -77 -35 -157 -19 -81 -35 -151 -35 -156 0
-6 12 -10 28 -10 l27 0 53 228 c28 125 52 233 52 240 0 16 -76 16 -83 0 -60
-146 -140 -334 -144 -338 -3 -3 -2 75 2 173 l7 177 -41 0 c-24 0 -43 -5 -46
-12z"/>
<path d="M2922 2015 c-37 -31 -45 -51 -82 -208 -37 -158 -39 -210 -8 -231 34
-24 91 -20 126 9 38 32 53 70 91 239 43 186 35 216 -58 216 -27 0 -48 -7 -69
-25z m85 -42 c6 -16 -51 -289 -69 -329 -14 -29 -38 -38 -55 -21 -12 12 -9 37
21 172 20 89 43 166 53 177 20 22 42 23 50 1z"/>
<path d="M3148 2010 c-4 -25 -1 -29 22 -32 l27 -3 -42 -180 c-23 -99 -44 -192
-48 -207 -7 -26 -5 -28 27 -28 l33 0 21 88 c11 48 32 142 48 210 27 119 28
122 55 122 24 0 38 18 39 53 0 4 -40 7 -89 7 l-89 0 -4 -30z"/>
<path d="M3424 2021 c-39 -24 -54 -61 -94 -236 -44 -195 -33 -234 66 -222 77
8 97 41 143 235 36 155 39 202 13 225 -25 23 -90 21 -128 -2z m75 -45 c8 -10
4 -46 -19 -147 -17 -74 -35 -149 -41 -167 -17 -52 -69 -65 -69 -17 0 26 55
271 69 309 9 21 22 33 42 35 4 1 12 -5 18 -13z"/>
<path d="M3680 2034 c0 -5 -45 -200 -95 -416 l-13 -58 33 0 33 0 27 115 c25
108 28 115 51 115 14 0 27 -7 31 -16 5 -13 -12 -109 -34 -192 -5 -20 -2 -22
29 -22 l34 0 17 83 c19 91 22 153 8 162 -5 3 1 16 14 29 45 45 62 176 26 196
-20 10 -161 14 -161 4z m115 -63 c3 -10 -2 -43 -12 -72 -15 -46 -22 -54 -45
-57 -22 -3 -28 1 -28 15 0 18 17 97 25 121 7 19 53 15 60 -7z"/>
<path d="M3980 2012 c-33 -33 -54 -101 -45 -142 4 -16 20 -47 36 -70 17 -23
34 -53 40 -67 12 -33 -6 -99 -32 -113 -32 -18 -42 -3 -35 56 l6 54 -29 0 c-33
0 -41 -17 -41 -97 0 -63 19 -78 89 -70 54 6 85 36 102 100 17 63 7 116 -35
178 -20 29 -36 66 -36 80 0 37 32 74 55 65 15 -5 17 -14 12 -51 -7 -44 -6 -45
22 -45 32 0 41 18 41 86 0 52 -13 64 -73 64 -40 0 -54 -5 -77 -28z"/>
</g>
</svg>
